<?xml version="1.0" encoding="utf-8"?>
<!-- Generator: Adobe Illustrator 16.0.0, SVG Export Plug-In . SVG Version: 6.00 Build 0)  -->
<!DOCTYPE svg PUBLIC "-//W3C//DTD SVG 1.1//EN" "http://www.w3.org/Graphics/SVG/1.1/DTD/svg11.dtd">
<svg version="1.1" xmlns="http://www.w3.org/2000/svg" xmlns:xlink="http://www.w3.org/1999/xlink" x="0px" y="0px"
	 width="517.633px" height="95.333px" viewBox="0 0 517.633 95.333" enable-background="new 0 0 517.633 95.333"
	 xml:space="preserve">
<g id="Layer_1">
	
		<line fill="none" stroke="#FFFFFF" stroke-linecap="round" stroke-miterlimit="10" x1="87.776" y1="6.469" x2="2.803" y2="91.443"/>
	<line fill="none" stroke="#FFFFFF" stroke-linecap="round" stroke-miterlimit="10" x1="87.776" y1="3.667" x2="0" y2="91.443"/>
	
		<line fill="none" stroke="#FFFFFF" stroke-linecap="round" stroke-miterlimit="10" x1="124.212" y1="6.469" x2="107.712" y2="22.969"/>
	
		<line fill="none" stroke="#FFFFFF" stroke-linecap="round" stroke-miterlimit="10" x1="104.509" y1="6.469" x2="19.518" y2="91.443"/>
	
		<line fill="none" stroke="#FFFFFF" stroke-linecap="round" stroke-miterlimit="10" x1="129.634" y1="37.468" x2="107.733" y2="59.368"/>
	
		<line fill="none" stroke="#CCCCCC" stroke-linecap="round" stroke-miterlimit="10" x1="164.694" y1="32.651" x2="160.121" y2="37.224"/>
	
		<line fill="none" stroke="#FFFFFF" stroke-linecap="round" stroke-miterlimit="10" x1="164.694" y1="76.125" x2="149.377" y2="91.443"/>
	
		<line fill="none" stroke="#FFFFFF" stroke-linecap="round" stroke-miterlimit="10" x1="160.342" y1="71.221" x2="140.12" y2="91.443"/>
	
		<line fill="none" stroke="#FFFFFF" stroke-linecap="round" stroke-miterlimit="10" x1="167.792" y1="76.125" x2="152.587" y2="91.331"/>
	
		<line fill="none" stroke="#FFFFFF" stroke-linecap="round" stroke-miterlimit="10" x1="184.217" y1="38.399" x2="167.872" y2="54.745"/>
	
		<line fill="none" stroke="#FFFFFF" stroke-linecap="round" stroke-miterlimit="10" x1="217.741" y1="69.749" x2="197.483" y2="90.006"/>
	
		<line fill="none" stroke="#FFFFFF" stroke-linecap="round" stroke-miterlimit="10" x1="262.478" y1="3.667" x2="193.13" y2="73.014"/>
	
		<line fill="none" stroke="#FFFFFF" stroke-linecap="round" stroke-miterlimit="10" x1="315.319" y1="3.667" x2="273.314" y2="45.671"/>
	
		<line fill="none" stroke="#FFFFFF" stroke-linecap="round" stroke-miterlimit="10" x1="315.319" y1="48.494" x2="272.369" y2="91.443"/>
	
		<line fill="none" stroke="#FFFFFF" stroke-linecap="round" stroke-miterlimit="10" x1="262.478" y1="76.125" x2="247.16" y2="91.443"/>
	
		<line fill="none" stroke="#FFFFFF" stroke-linecap="round" stroke-miterlimit="10" x1="265.661" y1="76.125" x2="250.344" y2="91.443"/>
	
		<line fill="none" stroke="#FFFFFF" stroke-linecap="round" stroke-miterlimit="10" x1="315.319" y1="76.125" x2="300.002" y2="91.443"/>
	
		<line fill="none" stroke="#FFFFFF" stroke-linecap="round" stroke-miterlimit="10" x1="318.512" y1="76.125" x2="303.193" y2="91.443"/>
	
		<line fill="none" stroke="#FFFFFF" stroke-linecap="round" stroke-miterlimit="10" x1="107.693" y1="76.125" x2="92.358" y2="91.443"/>
	
		<line fill="none" stroke="#FFFFFF" stroke-linecap="round" stroke-miterlimit="10" x1="104.509" y1="76.125" x2="89.174" y2="91.443"/>
	
		<line fill="none" stroke="#FFFFFF" stroke-linecap="round" stroke-miterlimit="10" x1="336.817" y1="37.43" x2="318.56" y2="55.688"/>
	
		<line fill="none" stroke="#FFFFFF" stroke-linecap="round" stroke-miterlimit="10" x1="369.403" y1="69.471" x2="347.433" y2="91.443"/>
	
		<line fill="none" stroke="#FFFFFF" stroke-linecap="round" stroke-miterlimit="10" x1="422.132" y1="69.476" x2="400.165" y2="91.443"/>
	
		<line fill="none" stroke="#FFFFFF" stroke-linecap="round" stroke-miterlimit="10" x1="388.854" y1="38.02" x2="375.019" y2="51.854"/>
	
		<line fill="none" stroke="#FFFFFF" stroke-linecap="round" stroke-miterlimit="10" x1="437.043" y1="32.651" x2="425.517" y2="44.178"/>
	<line fill="none" stroke="#666666" stroke-miterlimit="10" x1="442.678" y1="37.55" x2="440.133" y2="40.096"/>
	
		<line fill="none" stroke="#FFFFFF" stroke-linecap="round" stroke-miterlimit="10" x1="437.043" y1="76.125" x2="421.725" y2="91.443"/>
	
		<line fill="none" stroke="#FFFFFF" stroke-linecap="round" stroke-miterlimit="10" x1="440.133" y1="76.125" x2="424.815" y2="91.443"/>
	
		<line fill="none" stroke="#FFFFFF" stroke-linecap="round" stroke-miterlimit="10" x1="472.981" y1="76.125" x2="457.664" y2="91.443"/>
	
		<line fill="none" stroke="#FFFFFF" stroke-linecap="round" stroke-miterlimit="10" x1="476.079" y1="76.125" x2="460.762" y2="91.443"/>
	<line fill="none" stroke="#FFFFFF" stroke-linecap="round" stroke-miterlimit="10" x1="517.633" y1="91.443" x2="0" y2="91.443"/>
	<path fill="#FFFFFF" d="M124.212,3.667v2.803h-16.519v69.656h-3.185V6.469H87.776V3.667H124.212z"/>
	<path fill="#FFFFFF" d="M167.792,32.651v43.475h-3.098V65.303c-1.8,3.672-4.505,6.572-8.113,8.695
		c-3.609,2.127-7.47,3.188-11.589,3.188c-6.313,0-11.723-2.237-16.236-6.714c-4.505-4.475-6.761-9.836-6.761-16.087
		c0-6.247,2.256-11.608,6.761-16.086c4.514-4.474,9.923-6.714,16.236-6.714c4.119,0,8.066,1.096,11.832,3.286
		c3.767,2.189,6.393,5.091,7.87,8.695V32.651H167.792z M125.085,54.485c0,5.409,1.98,10.095,5.943,14.058
		c3.963,3.958,8.664,5.94,14.104,5.94c5.441,0,10.096-1.982,13.964-5.94c3.86-3.963,5.794-8.664,5.794-14.104
		c0-5.445-1.949-10.162-5.841-14.156c-3.9-3.99-8.555-5.987-13.964-5.987s-10.095,2.013-14.058,6.038S125.085,49.076,125.085,54.485
		z"/>
	<path fill="#FFFFFF" d="M201.12,77.286h-0.872c-6.117,0-11.448-2.305-15.984-6.907c-4.544-4.604-6.809-9.966-6.809-16.087
		c0-6.12,2.248-11.416,6.762-15.893c4.505-4.475,10.079-6.715,16.715-6.715c6.628,0,12.328,2.642,17.093,7.922l-30.333,29.951
		c4.183,3.349,8.216,5.023,12.076,5.023c3.868,0,7.328-0.885,10.387-2.657c3.059-1.769,5.59-4.14,7.587-7.1v4.925
		C213.165,74.774,207.622,77.286,201.12,77.286z M200.106,34.389c-5.119,0-9.663,1.98-13.626,5.943
		c-3.954,3.959-5.936,8.52-5.936,13.668c0,5.154,1.706,9.664,5.118,13.527l28.115-27.922
		C209.784,36.13,205.225,34.389,200.106,34.389z"/>
	<path fill="#FFFFFF" d="M315.319,3.667h3.192v72.459h-3.192V48.494h-49.658v27.632h-3.184V3.667h3.184v42.028h49.658V3.667z"/>
	<path fill="#FFFFFF" d="M335.801,70.28c-4.442-4.604-6.667-9.965-6.667-16.086c0-6.117,2.256-11.416,6.761-15.894
		c4.514-4.474,9.938-6.714,16.283-6.714s11.754,2.24,16.228,6.714c4.474,4.478,6.714,9.792,6.714,15.944
		c0,6.148-2.186,11.511-6.564,16.082c-4.387,4.576-9.694,6.86-15.944,6.86h-0.873C345.558,77.187,340.243,74.887,335.801,70.28z
		 M372.029,54.438c0-5.445-1.949-10.162-5.841-14.156c-3.9-3.99-8.555-5.987-13.964-5.987s-10.095,2.013-14.058,6.038
		s-5.943,8.743-5.943,14.152s1.98,10.095,5.943,14.058c3.963,3.958,8.664,5.94,14.104,5.94c5.441,0,10.096-1.982,13.964-5.94
		C370.096,64.58,372.029,59.878,372.029,54.438z"/>
	<path fill="#FFFFFF" d="M388.548,70.28c-4.441-4.604-6.667-9.965-6.667-16.086c0-6.117,2.257-11.416,6.762-15.894
		c4.513-4.474,9.938-6.714,16.283-6.714c6.345,0,11.754,2.24,16.228,6.714c4.474,4.478,6.714,9.792,6.714,15.944
		c0,6.148-2.186,11.511-6.564,16.082c-4.388,4.576-9.694,6.86-15.945,6.86h-0.872C398.306,77.187,392.99,74.887,388.548,70.28z
		 M424.777,54.438c0-5.445-1.949-10.162-5.842-14.156c-3.899-3.99-8.554-5.987-13.963-5.987s-10.096,2.013-14.058,6.038
		c-3.963,4.025-5.944,8.743-5.944,14.152s1.981,10.095,5.944,14.058c3.962,3.958,8.664,5.94,14.104,5.94s10.096-1.982,13.964-5.94
		C422.844,64.58,424.777,59.878,424.777,54.438z"/>
	<path fill="#FFFFFF" d="M440.133,76.125h-3.09V32.651h3.09v8.791c3.286-6.569,8.892-9.855,16.817-9.855
		c5.409,0,9.945,1.871,13.617,5.605s5.512,8.275,5.512,13.621v25.313h-3.098V50.813c0-4.441-1.558-8.307-4.687-11.593
		c-3.121-3.286-6.903-4.926-11.345-4.926c-4.45,0-8.357,1.64-11.738,4.926s-5.079,7.151-5.079,11.593V76.125z"/>
</g>
<g id="Layer_2">
</g>
</svg>
